<?xml version="1.0" encoding="UTF-8"?>
<!DOCTYPE svg PUBLIC "-//W3C//DTD SVG 1.1//EN" "http://www.w3.org/Graphics/SVG/1.1/DTD/svg11.dtd">
<!-- Creator: CorelDRAW X7 -->
<svg xmlns="http://www.w3.org/2000/svg" xml:space="preserve" width="3.8828cm" height="2.77772cm" version="1.1" style="shape-rendering:geometricPrecision; text-rendering:geometricPrecision; image-rendering:optimizeQuality; fill-rule:evenodd; clip-rule:evenodd"
viewBox="0 0 32066 22940"
 xmlns:xlink="http://www.w3.org/1999/xlink">
 <defs>
  <style type="text/css">
   <![CDATA[
    .fil0 {fill:#3BB77E}
   ]]>
  </style>
 </defs>
 <g id="Layer_x0020_1">
  <metadata id="CorelCorpID_0Corel-Layer"/>
  <path class="fil0" d="M15717 9250l632 0 0 -631 -632 0 0 631zm-7475 -7222l354 0c174,0 315,142 315,316l0 0c0,173 -141,315 -315,315l-356 0 -1 0 -1 0 -1133 0 -7105 0 0 -2659 32066 0 0 2659 -7105 0 -1133 0 -1 0 -1 0 -356 0c-174,0 -316,-142 -316,-315l0 0c0,-174 142,-316 316,-316l354 0 1137 0 6346 0c105,0 191,-86 191,-191 0,-234 17,-466 17,-698 1,-169 -8,-370 -149,-488 -71,-60 -158,-83 -250,-83l-30167 0c-91,0 -178,23 -250,83 -140,118 -149,319 -148,488 0,232 17,464 17,698 0,105 86,191 191,191l6346 0 1137 0zm8106 18365l0 203c0,174 -142,316 -315,316l0 0c-174,0 -316,-142 -316,-316l0 -134 -7 -1c-12,-98 6,-429 7,-496l2 -5772c6,-446 73,-497 -263,-820l-2061 -2055c-156,-155 -575,-506 -672,-687 -91,-170 -80,-494 -78,-681 7,-677 30,-1351 30,-2029 0,-106 -86,-192 -191,-192l-823 0 0 -1836c0,-106 -86,-192 -191,-192l-1837 0 0 -3673 12800 0 0 3673 -1837 0c-105,0 -191,86 -191,192l0 1836 -823 0c-106,0 -191,86 -191,192l0 2630c-129,233 -958,1038 -1149,1227 -414,410 -840,809 -1251,1220 -149,149 -533,469 -608,656 -60,151 -39,379 -37,541l3 5007 -1 1191zm1195 -113l202 0 1289 0 13032 0 0 2660 -32066 0 0 -2660 13032 0 1288 0 203 0c173,0 315,142 315,316l0 0c0,174 -142,316 -315,316l-203 0 -1288 0 -12273 0c-105,0 -191,86 -191,191 0,233 -17,465 -17,697 -1,169 8,371 148,489 72,59 159,83 250,83l30167 0c92,0 179,-24 250,-83 141,-118 150,-320 149,-489 0,-232 -17,-464 -17,-697 0,-105 -86,-191 -191,-191l-12273 0 -1289 0 -202 0c-174,0 -316,-142 -316,-316l0 0c0,-174 142,-316 316,-316zm1571 -1559c69,176 188,369 289,541 1088,-588 2128,-1262 3215,-1850l-283 -526c-219,79 -533,300 -690,394l-2531 1441zm-9669 -1304l1613 927c527,318 1062,626 1605,918 100,-171 219,-363 288,-538 -172,-96 -343,-200 -511,-299 -365,-214 -731,-428 -1098,-640 -371,-214 -744,-427 -1121,-631 -95,-51 -334,-186 -496,-256l-280 519zm8182 63c185,105 366,218 551,323l1845 -3228c-182,-113 -368,-214 -557,-314l-1839 3219zm-5584 -2905l1845 3228c185,-105 366,-218 551,-323l-1839 -3219c-189,100 -375,201 -557,314zm-382 -10902l631 0 0 -822c0,-106 86,-192 192,-192l1014 0c105,0 191,86 191,192l0 822 631 0 0 -822c0,-106 86,-192 192,-192l1014 0c105,0 191,86 191,192l0 822 632 0 0 -822c0,-106 86,-192 191,-192l1014 0c105,0 191,86 191,192l0 822 632 0 0 -822c0,-106 86,-192 191,-192l1014 0c105,0 191,86 191,192l0 822 632 0 0 -822c0,-106 86,-192 191,-192l1014 0c106,0 191,86 191,192l0 2028c0,105 -85,191 -191,191l-11154 0c-106,0 -192,-86 -192,-191l0 -2028c0,-106 86,-192 192,-192l1014 0c105,0 191,86 191,192l0 822zm823 2028l7098 0c105,0 191,86 191,192l0 1014c0,105 -86,191 -191,191l-7098 0c-106,0 -192,-86 -192,-191l0 -1014c0,-106 86,-192 192,-192zm1014 2028l5070 0c105,0 191,86 191,192l0 2028c0,105 -86,191 -191,191l-5070 0c-106,0 -192,-86 -192,-191l0 -2028c0,-106 86,-192 192,-192zm681 3058l3691 -16c79,0 147,45 177,117 31,73 16,153 -40,209l-1822 1853c-74,76 -196,77 -271,3l-1869 -1838c-56,-56 -73,-135 -43,-209 30,-73 97,-119 177,-119z"/>
 </g>
</svg>
