<?xml version="1.0" encoding="UTF-8"?>
<!DOCTYPE svg PUBLIC "-//W3C//DTD SVG 1.1//EN" "http://www.w3.org/Graphics/SVG/1.1/DTD/svg11.dtd">
<!-- Creator: CorelDRAW X7 -->
<svg xmlns="http://www.w3.org/2000/svg" xml:space="preserve" width="2.73066cm" height="2.72022cm" version="1.1" style="shape-rendering:geometricPrecision; text-rendering:geometricPrecision; image-rendering:optimizeQuality; fill-rule:evenodd; clip-rule:evenodd"
viewBox="0 0 22775 22688"
 xmlns:xlink="http://www.w3.org/1999/xlink">
 <defs>
  <style type="text/css">
   <![CDATA[
    .fil0 {fill:#3BB77E}
   ]]>
  </style>
 </defs>
 <g id="Layer_x0020_1">
  <metadata id="CorelCorpID_0Corel-Layer"/>
  <path class="fil0" d="M16452 6539c-334,-176 -627,-554 -907,-813 -230,-213 -466,-426 -768,-226 -86,58 -228,163 -229,282 -2,322 582,857 792,1066 304,304 1281,1405 1624,1487 111,17 218,13 313,-50 331,-219 569,-1145 718,-1518 340,-851 675,-1704 1024,-2551 97,-233 198,-465 283,-703 102,-285 339,-879 -41,-1057 -97,-46 -252,-107 -358,-52 -290,149 -568,1035 -691,1332 -344,827 -690,1659 -992,2503 -55,154 -163,265 -315,325 -153,59 -308,51 -453,-25zm2753 11901c60,-43 112,-92 144,-161 103,-218 51,-831 48,-1085l3 -6294c0,-65 11,-121 37,-181 208,-485 836,-655 1207,-948 1037,-820 1684,-1826 1997,-3118 423,-1748 -182,-3801 -1453,-5068 -2038,-2031 -5232,-2102 -7414,-259 -596,503 -1076,1130 -1389,1846 -93,212 -326,321 -548,256 -447,-129 -845,-300 -1250,-528 -175,-99 -417,-260 -608,-315 -256,-73 -580,62 -809,164 -964,432 -1942,840 -2890,1308 -1890,934 -3848,1753 -5771,2619 -133,60 -261,139 -342,264 -146,222 -153,621 -154,878 -2,618 40,1236 37,1856 -7,1351 -27,2702 -36,4053 -9,1413 -39,2883 34,4293 4,85 22,165 65,239 123,213 456,378 669,478 482,225 988,408 1474,629l7176 3262c401,178 797,-85 1150,-257 4,-1 7,-3 11,-4l8612 -3927zm-16922 -11666c206,-156 626,-338 865,-451 489,-233 981,-459 1474,-682 741,-337 1489,-681 2238,-996 642,-270 1255,-560 1877,-870 306,-153 648,-336 998,-333 278,3 527,116 772,234 381,183 752,369 1139,540 168,74 271,230 273,413 13,951 -104,1473 195,2415 132,415 296,793 524,1164 151,244 340,489 434,762 78,227 -31,474 -251,570 -683,297 -1343,617 -2014,938 -335,160 -705,341 -1084,330 -371,-10 -753,-210 -1085,-363l-6270 -2890c-151,-69 -246,-202 -264,-366 -18,-165 47,-315 179,-415zm14385 -5936c2540,-396 4898,1372 5274,3903 385,2592 -1338,4945 -3913,5334 -2559,387 -4935,-1355 -5325,-3915 -403,-2649 1362,-4917 3964,-5322zm-15179 7204l7579 3429c168,76 269,234 269,419l-20 9125c0,159 -74,295 -207,382 -132,87 -287,101 -433,38 -1234,-532 -2459,-1123 -3679,-1690 -759,-353 -1518,-706 -2281,-1049 -521,-235 -1062,-483 -1598,-682 -183,-68 -299,-235 -299,-430l21 -9126c1,-160 76,-297 211,-384 134,-87 291,-98 437,-32zm8919 3421c601,-224 1190,-514 1772,-785 427,-199 873,-421 1311,-590 264,-102 533,-182 814,-94 208,64 379,217 567,326 340,198 749,324 1127,419 774,194 1342,166 2129,101 132,-11 250,30 348,120 98,90 148,204 148,337l-5 6286c0,188 -106,348 -279,422 -1272,539 -2524,1129 -3773,1718 -1257,593 -2547,1115 -3803,1710 -146,69 -305,59 -441,-27 -137,-87 -214,-226 -214,-387l1 -9126c0,-195 115,-362 298,-430z"/>
 </g>
</svg>
