<?xml version="1.0" encoding="UTF-8"?>
<!DOCTYPE svg PUBLIC "-//W3C//DTD SVG 1.1//EN" "http://www.w3.org/Graphics/SVG/1.1/DTD/svg11.dtd">
<!-- Creator: CorelDRAW X7 -->
<svg xmlns="http://www.w3.org/2000/svg" xml:space="preserve" width="3.04638cm" height="2.90286cm" version="1.1" style="shape-rendering:geometricPrecision; text-rendering:geometricPrecision; image-rendering:optimizeQuality; fill-rule:evenodd; clip-rule:evenodd"
viewBox="0 0 26276 25038"
 xmlns:xlink="http://www.w3.org/1999/xlink">
 <defs>
  <style type="text/css">
   <![CDATA[
    .fil0 {fill:#3BB77E}
   ]]>
  </style>
 </defs>
 <g id="Layer_x0020_1">
  <metadata id="CorelCorpID_0Corel-Layer"/>
  <path class="fil0" d="M17698 2147l0 22289 8034 -1546 0 -5000c0,-150 122,-273 272,-273 150,0 272,123 272,273l0 5225c0,132 -92,242 -221,267l-8555 1646c-23,7 -47,10 -72,10l0 0 -3 0 -1 0c-24,0 -48,-3 -71,-10l-8504 -1636 -8526 1640c-82,16 -160,-4 -224,-57 -65,-54 -99,-126 -99,-210l0 -22842c0,-132 91,-242 221,-267l8555 -1646c23,-7 47,-10 71,-10l0 0 4 0 0 0c25,0 49,3 72,10l8503 1636 8526 -1641c83,-15 160,4 225,58 65,53 99,125 99,209l0 15383c0,149 -122,271 -272,271 -150,0 -272,-122 -272,-271l0 -15053 -8034 1545zm2335 13847l3268 -649c915,-182 1692,482 1692,1407l0 3893c0,832 -630,1623 -1450,1786l-3268 650c-914,181 -1692,-483 -1692,-1408l0 -3893c0,-832 630,-1622 1450,-1786zm121 608l3268 -649c523,-104 951,255 951,799l0 3893c0,544 -428,1074 -951,1178l-3268 650c-523,104 -951,-256 -951,-800l0 -3893c0,-544 428,-1074 951,-1178zm-8948 -7025l3268 649c915,182 1692,-482 1692,-1407l0 -3893c0,-832 -630,-1623 -1450,-1786l-3268 -650c-914,-182 -1692,483 -1692,1408l0 3893c0,832 630,1622 1450,1786zm121 -608l3268 649c523,105 951,-255 951,-799l0 -3893c0,-544 -428,-1074 -951,-1178l-3268 -650c-523,-104 -951,256 -951,800l0 3893c0,543 428,1074 951,1178zm14677 7531c150,0 272,122 272,272 0,150 -122,272 -272,272 -151,0 -272,-122 -272,-272 0,-150 121,-272 272,-272zm-1605 -12885l0 0c0,152 -52,292 -202,321l-4285 824c-150,29 -343,-63 -343,-215l0 -1c0,-152 52,-291 202,-320l4285 -824c151,-29 343,63 343,215zm0 4600l0 0c0,152 -52,292 -202,320l-4285 825c-150,29 -343,-63 -343,-216l0 0c0,-152 52,-291 202,-320l4285 -824c151,-29 343,63 343,215zm0 4600l0 0c0,152 -52,292 -202,320l-4285 825c-150,28 -343,-63 -343,-216l0 0c0,-152 52,-292 202,-320l4285 -825c151,-28 343,63 343,216zm-21593 2356l3267 -650c915,-182 1693,482 1693,1408l0 3892c0,832 -630,1623 -1451,1786l-3267 650c-915,182 -1692,-482 -1692,-1408l0 -3892c0,-833 629,-1623 1450,-1786zm121 608l3267 -650c524,-104 952,256 952,800l0 3892c0,544 -428,1074 -952,1178l-3267 650c-523,104 -951,-256 -951,-800l0 -3892c0,-544 428,-1074 951,-1178zm7626 -4575l0 0c0,153 52,292 202,321l4286 824c150,29 343,-63 343,-215l0 -1c0,-152 -53,-291 -203,-320l-4285 -824c-150,-29 -343,63 -343,215zm0 4600l0 0c0,152 52,292 202,320l4286 825c150,28 343,-63 343,-216l0 0c0,-152 -53,-291 -203,-320l-4285 -825c-150,-28 -343,64 -343,216zm0 4600l0 0c0,152 52,292 202,320l4286 825c150,28 343,-63 343,-216l0 0c0,-152 -53,-292 -203,-320l-4285 -825c-150,-28 -343,63 -343,216zm-3692 -16745l0 0c0,152 -52,292 -202,320l-4285 825c-150,28 -343,-63 -343,-216l0 0c0,-152 52,-291 202,-320l4285 -825c150,-28 343,63 343,216zm0 4600l0 0c0,152 -52,291 -202,320l-4285 824c-150,29 -343,-62 -343,-215l0 0c0,-152 52,-292 202,-320l4285 -825c150,-29 343,63 343,216zm0 4599l0 1c0,152 -52,291 -202,320l-4285 824c-150,29 -343,-63 -343,-215l0 0c0,-153 52,-292 202,-321l4285 -824c150,-29 343,63 343,215zm1716 10032l0 -22288 -8033 1545 0 22289 8033 -1546zm8577 -20743l-8033 -1545 0 22288 8033 1546 0 -22289z"/>
 </g>
</svg>
