<?xml version="1.0" encoding="UTF-8"?>
<!DOCTYPE svg PUBLIC "-//W3C//DTD SVG 1.1//EN" "http://www.w3.org/Graphics/SVG/1.1/DTD/svg11.dtd">
<!-- Creator: CorelDRAW X7 -->
<svg xmlns="http://www.w3.org/2000/svg" xml:space="preserve" width="3.78666cm" height="2.56918cm" version="1.1" style="shape-rendering:geometricPrecision; text-rendering:geometricPrecision; image-rendering:optimizeQuality; fill-rule:evenodd; clip-rule:evenodd"
viewBox="0 0 57368 38923"
 xmlns:xlink="http://www.w3.org/1999/xlink">
 <defs>
  <style type="text/css">
   <![CDATA[
    .fil0 {fill:#3BB77E}
   ]]>
  </style>
 </defs>
 <g id="Layer_x0020_1">
  <metadata id="CorelCorpID_0Corel-Layer"/>
  <g id="_779812704">
   <g>
    <path class="fil0" d="M15791 7213c3457,-10 6876,724 10007,2620 244,147 334,488 201,758 -133,271 -440,370 -683,223 -3033,-1836 -6359,-2520 -9718,-2482 102,-362 168,-736 193,-1119z"/>
    <path class="fil0" d="M7995 13524c5924,-1576 12306,-1827 17803,1502 244,147 334,488 201,758 -133,270 -440,370 -683,223 -5266,-3188 -11417,-2904 -17085,-1396 -271,72 -543,-114 -608,-413 -64,-299 103,-602 372,-674z"/>
    <path class="fil0" d="M7995 18717c5924,-1576 12306,-1827 17803,1501 244,148 334,488 201,758 -133,271 -440,371 -683,223 -5266,-3188 -11417,-2903 -17085,-1395 -271,72 -543,-114 -608,-413 -64,-300 103,-602 372,-674z"/>
    <path class="fil0" d="M7995 23909c5924,-1575 12306,-1827 17803,1502 244,147 334,488 201,758 -133,270 -440,370 -683,223 -5266,-3188 -11417,-2904 -17085,-1396 -271,72 -543,-113 -608,-413 -64,-299 103,-602 372,-674z"/>
    <path class="fil0" d="M9670 4261l1670 -231c1015,-140 1845,591 1845,1626l0 2708c0,1034 -830,1995 -1845,2136l-1670 230c-1014,141 -1845,-591 -1845,-1625l0 -2708c0,-1035 831,-1996 1845,-2136z"/>
    <path class="fil0" d="M49372 11223c-5923,-1576 -12305,-1827 -17802,1501 -244,148 -334,488 -201,759 133,270 440,370 683,223 5265,-3189 11417,-2904 17085,-1396 270,72 543,-114 608,-413 64,-300 -103,-602 -373,-674z"/>
    <path class="fil0" d="M49372 16416c-5923,-1576 -12305,-1827 -17802,1501 -244,147 -334,488 -201,758 133,271 440,370 683,223 5265,-3188 11417,-2903 17085,-1395 270,71 543,-114 608,-413 64,-300 -103,-602 -373,-674z"/>
    <path class="fil0" d="M49372 21608c-5923,-1576 -12305,-1827 -17802,1502 -244,147 -334,488 -201,758 133,270 440,370 683,223 5265,-3188 11417,-2904 17085,-1396 270,72 543,-114 608,-413 64,-299 -103,-602 -373,-674z"/>
   </g>
   <path class="fil0" d="M53291 20765c249,0 450,202 450,451 0,248 -201,450 -450,450 -249,0 -451,-202 -451,-450 0,-249 202,-451 451,-451zm-25058 14115l901 0 0 3142 23218 0c2262,0 4115,-1853 4115,-4115l0 -20785 0 -2505 0 -2355c0,-248 202,-451 450,-451l0 0c248,0 451,203 451,451l0 2355 0 2505 0 20785c0,2759 -2257,5016 -5016,5016l-23218 0 -901 0 -23217 0c-2760,0 -5016,-2257 -5016,-5016l0 -20785 0 -2505 0 -2355c0,-248 203,-451 450,-451l0 0c248,0 451,8615 451,8367l0 -5561 0 2505 0 20785c0,2262 1852,4115 4115,4115l23217 0 0 -3142z"/>
   <path class="fil0" d="M28397 34441c-6525,-4851 -15910,-3829 -23254,-1686 -150,44 -298,17 -423,-77 -125,-94 -193,-229 -193,-385 0,-9675 0,-19350 0,-29025 0,-215 136,-398 342,-461 7369,-2232 17120,-3441 23530,1810 169,138 401,138 570,0 6410,-5251 16161,-4042 23530,-1810 206,63 341,246 341,461 0,3893 0,7786 0,11680l0 1032c0,247 204,451 451,451 246,0 450,-204 450,-451l0 -1032c0,-3937 0,-7873 0,-11810 0,-241 -145,-506 -285,-694 -139,-185 -351,-399 -580,-466 -218,-62 -434,-128 -651,-192 -7345,-2144 -16729,-3164 -23254,1687 -173,128 -401,128 -574,0 -6525,-4851 -15910,-3831 -23254,-1687 -217,64 -434,130 -651,192 -229,67 -442,281 -580,466 -141,188 -286,453 -286,694 0,10138 0,20275 0,30412 0,153 61,273 185,363 123,91 256,112 402,66 7504,-2379 17610,-3781 24186,1606 169,139 401,139 570,0 6576,-5387 16682,-3985 24186,-1606 145,46 279,25 402,-66 124,-90 184,-210 184,-363l0 -11956c0,-247 -203,-450 -450,-450 -247,0 -451,203 -451,450l0 10699c0,156 -67,291 -192,385 -125,94 -273,121 -423,77 -7345,-2143 -16729,-3165 -23254,1686 -173,129 -401,129 -574,0z"/>
   <g>
    <path class="fil0" d="M6128 35141c6213,-1561 12249,-2342 18313,179 494,206 982,428 1463,662 226,110 321,385 211,612 -111,227 -386,322 -613,211 -464,-226 -935,-441 -1413,-639 -2360,-982 -4688,-1474 -7244,-1548 -3495,-102 -7118,563 -10493,1411 -245,61 -495,-88 -556,-333 -61,-244 88,-494 332,-555z"/>
    <path class="fil0" d="M51239 35141c-6212,-1561 -12249,-2342 -18312,179 -494,206 -982,428 -1463,662 -226,110 -321,385 -211,612 111,227 386,322 612,211 465,-226 936,-441 1413,-639 2360,-982 4688,-1474 7245,-1548 3494,-102 7117,563 10493,1411 245,61 494,-88 556,-333 61,-244 -88,-494 -333,-555z"/>
   </g>
  </g>
 </g>
</svg>
