<?xml version="1.0" encoding="UTF-8"?>
<!DOCTYPE svg PUBLIC "-//W3C//DTD SVG 1.1//EN" "http://www.w3.org/Graphics/SVG/1.1/DTD/svg11.dtd">
<!-- Creator: CorelDRAW X7 -->
<svg xmlns="http://www.w3.org/2000/svg" xml:space="preserve" width="2.43542cm" height="2.82034cm" version="1.1" style="shape-rendering:geometricPrecision; text-rendering:geometricPrecision; image-rendering:optimizeQuality; fill-rule:evenodd; clip-rule:evenodd"
viewBox="0 0 45248 52399"
 xmlns:xlink="http://www.w3.org/1999/xlink">
 <defs>
  <style type="text/css">
   <![CDATA[
    .fil0 {fill:#3BB77E}
   ]]>
  </style>
 </defs>
 <g id="Layer_x0020_1">
  <metadata id="CorelCorpID_0Corel-Layer"/>
  <path class="fil0" d="M44068 1180l-34214 0 0 45619 34214 0 0 -24967c0,-325 265,-590 590,-590 325,0 590,265 590,590l0 25557c0,325 -265,590 -590,590l-35394 0c-325,0 -590,-265 -590,-590l0 -46799c0,-325 265,-590 590,-590l35394 0c325,0 590,265 590,590l0 15268c0,325 -265,590 -590,590 -325,0 -590,-265 -590,-590l0 -14678zm-26697 49017l1467 -114c324,-25 609,219 634,543l0 0c25,323 -219,608 -542,634l-12890 999 0 0 -1786 139c-324,25 -609,-219 -634,-543l-3618 -46659c-25,-324 219,-609 542,-634l2531 -196 3380 -262 70 -5c323,-26 608,218 633,542l0 0c25,324 -219,609 -542,634l-161 12 -3380 263 -1851 143 3526 45483 1199 -93 11422 -886zm-5230 -46730l0 34472 29640 0 0 -34472 -29640 0zm1180 1180l0 32113 27280 0 0 -32113 -27280 0zm31337 13608c326,0 590,264 590,590 0,326 -264,590 -590,590 -326,0 -590,-264 -590,-590 0,-326 264,-590 590,-590z"/>
 </g>
</svg>
