<?xml version="1.0" encoding="UTF-8"?>
<!DOCTYPE svg PUBLIC "-//W3C//DTD SVG 1.1//EN" "http://www.w3.org/Graphics/SVG/1.1/DTD/svg11.dtd">
<!-- Creator: CorelDRAW X7 -->
<svg xmlns="http://www.w3.org/2000/svg" xml:space="preserve" width="2.94456cm" height="2.75474cm" version="1.1" style="shape-rendering:geometricPrecision; text-rendering:geometricPrecision; image-rendering:optimizeQuality; fill-rule:evenodd; clip-rule:evenodd"
viewBox="0 0 155483 145460"
 xmlns:xlink="http://www.w3.org/1999/xlink">
 <defs>
  <style type="text/css">
   <![CDATA[
    .fil0 {fill:#3BB77E}
   ]]>
  </style>
 </defs>
 <g id="Layer_x0020_1">
  <metadata id="CorelCorpID_0Corel-Layer"/>
  <g id="_840968096">
   <path class="fil0" d="M55235 20251l-22124 7054c3144,10050 4455,19861 3867,30485l-41 40199c-2,930 -761,1689 -1691,1687 -930,-1 -1688,-760 -1687,-1690l38 -37134 -9796 6346c-3017,1954 -6056,2237 -8484,-782l-13557 -16857c-2971,-2805 -1800,-5486 704,-8009 8211,-8272 15657,-20770 26555,-25482 2166,-937 5060,-1605 7353,-2215 4498,-1194 8995,-2371 13478,-3620l7622 -3979c3516,-3443 7299,-5128 11575,-5727l0 0 7 -1c444,-61 893,-112 1347,-151 4710,-485 9420,-499 14131,-42 5071,339 9450,1976 13480,5921l7622 3979c4483,1250 8979,2426 13477,3621 2293,609 5187,1277 7353,2214 10898,4712 18344,17210 26555,25482 2504,2523 3675,5204 704,8009l-13557 16857c-2428,3019 -5468,2736 -8484,782l-9796 -6346 39 37134c0,930 -758,1689 -1688,1690 -930,2 -1689,-757 -1690,-1687l-41 -40199c-589,-10624 722,-20435 3866,-30485l-22597 -7224c-418,396 -848,772 -1289,1132 -5099,4333 -10873,7586 -17131,10690 -4983,2471 -8559,1151 -12433,-2696 -874,-867 -880,-2288 -11,-3162 867,-874 2287,-878 3161,-11 1209,1199 2988,2770 4828,2654 847,-54 1716,-418 2468,-791 8438,-4185 16051,-8647 22065,-16047l-4285 -2236 -11759 8500 18 53c-746,607 -1492,1124 -2238,1551l-3 3 -100 57 -89 49 -145 79 -83 45c-53,28 -107,56 -160,83l-77 39c-56,28 -112,56 -168,83l-62 30c-61,30 -122,58 -183,86l-48 22c-61,27 -121,55 -183,81l-68 29c-54,24 -109,47 -164,69l-89 37c-50,19 -100,39 -150,59l-76 28c-53,20 -107,41 -160,60l-73 26c-59,20 -117,40 -176,59l-70 23c-53,18 -105,34 -157,51l-82 24c-50,15 -100,30 -150,44l-95 27 -149 39 -78 20c-54,14 -108,27 -161,39l-79 18c-52,11 -103,23 -155,34l-92 18 -147 28 -86 16c-45,7 -89,15 -134,22l-120 18 -111 15 -128 17 -114 13 -120 12 -123 11 -124 9 -110 8 -128 6 -121 5c-203,6 -406,5 -610,-1l-8 0 -19 -1 -91 -5 -22 0 -104 -6 -11 -1 -8 0 -88 -6 -27 -2 -20 -2 -75 -5 -49 -5 -5 0 -87 -9 -57 -5 -47 -6 -56 -5 -16 -3 -84 -10 -4 -1 -87 -11 -10 -1 -59 -9 -44 -6 -60 -9 -3 -1 -88 -14 -15 -2 -73 -13 -16 -3 -57 -10 -14 -3 -87 -16 -1 0 -88 -17 -13 -3 -51 -11 -49 -10 -62 -13 -88 -20 -18 -5 -70 -16 -22 -5 -56 -14 -33 -8 -144 -37 -12 -4 -77 -21 -20 -5 -75 -22 -88 -25 -78 -24 -24 -7 -61 -19 -12 -4 -88 -27c-58,-20 -117,-39 -175,-59l-78 -27 -11 -4 -87 -31 -2 -1 -82 -30 -7 -2 -85 -33 -88 -33 -72 -29 -23 -9 -81 -32 -80 -33 -7 -4 -88 -37 -4 -2 -70 -30 -24 -10c-199,-87 -397,-180 -596,-280l-18 -9c-114,-58 -227,-116 -341,-178l-3 -1c-853,-461 -1704,-1037 -2557,-1730l-11833 -8553 -5404 2820c2733,3856 6088,7144 10191,9584 800,477 1064,1517 588,2316 -475,799 -1516,1064 -2314,587 -2251,-1337 -4300,-2907 -6161,-4670zm38254 124457l12 -40c9580,-881 19373,-2663 27597,-6336 616,-275 992,-847 1000,-1521l348 -28188c11,-930 -737,-1699 -1667,-1710 -931,-11 -1699,737 -1711,1668l-334 27095c-10613,4465 -23934,5815 -35646,6270 -3582,116 -7165,115 -10748,-3 -3560,-138 -7268,-360 -11002,-728l-100 -9 -243 -25c-8427,-848 -16972,-2445 -24245,-5505l-335 -27095c-12,-931 -781,-1680 -1711,-1668 -929,11 -1679,780 -1668,1709l348 28189c9,674 385,1246 1001,1521 8348,3728 18313,5508 28030,6376l0 0 486 42 9 2 476 40 197 15 289 24 382 31 103 8 486 37 81 6 404 29 266 19 1 0 500 34 166 12 38 2 486 32 143 9 342 22c2987,183 5919,295 8739,367 1048,29 2415,26 3465,0 1300,-33 2625,-74 3968,-128 3349,-104 6698,-305 10047,-603zm-16379 -141326l0 0 -96 0 -17 1 -78 1c-732,11 -1465,32 -2197,64l-91 4 -4 0 -96 5 -25 1c-310,14 -620,31 -931,49l-66 3 -29 2 -95 6 0 0 -250 16 -37 2 -286 20 -51 3 -45 3c-351,25 -701,52 -1051,82l-25 2 -71 6 -178 16 -12 1 -96 8 -16 2 -80 7 -45 4 -50 4 -96 10 0 6c-3641,269 -6845,1324 -9842,3774l10671 7713 0 22 9 7 10 7 9 7 9 6 38 27 10 7 9 6 9 7 10 7 9 7 56 39 10 7 9 6 9 7 10 6 9 7 10 6 9 7 9 7 10 5 9 7 9 7 131 89 10 6c59,40 118,79 178,118l5 3c3524,2292 7047,2304 10571,38l4 -3 70 -44 11 -8 11 -8 12 -8 12 -8 12 -7 11 -7 12 -8 11 -8 12 -8 94 -62 11 -8 12 -8 11 -8 12 -8 12 -8 11 -7 12 -8 11 -9 13 -8 11 -8 105 -73 11 -8 12 -8 12 -9 12 -8 11 -8 11 -8 13 -9 116 -84 11 -8 12 -8 12 -9 12 -9 11 -8 0 -26 10579 -7646c-3031,-2479 -6275,-3530 -9969,-3782l0 -56 -93 -8 -88 -7 -6 0 -94 -8 -94 -8 -44 -3 -49 -4 -94 -7 -93 -7 -2 -1 -92 -7 -93 -6 -52 -4 -42 -3 -93 -7 -94 -7 -9 -1 -85 -5 -94 -6 -58 -4 -35 -3 -94 -6 -93 -6 -16 -1 -78 -5 -94 -6 -66 -4 -27 -2 -94 -5 -94 -6 -22 -1 -72 -3 -93 -6 -73 -4 -20 -1 -94 -5 -94 -5 -30 -2 -63 -2 -94 -5 -81 -4 -13 -1 -93 -4 -94 -4 -37 -2 -57 -2 -93 -4 -87 -4 -7 0 -93 -4 -94 -4 -45 -2 -49 -1 -94 -4 -93 -3 -1 0 -93 -4 -93 -3 -52 -1 -42 -2 -94 -2 -9 0 -178 -6 -93 -2 -59 -1 -35 -2 -94 -2 -187 -4 -94 -2 -93 -2 -94 -2 -11 0 -176 -2 -94 -2 -72 -1 -21 0 -94 -1 -94 -1 -29 -1 -64 0 -94 -1 -187 -1 0 0c-420,-2 -839,-1 -1258,5zm28423 10359c-78,190 -184,373 -317,541 -888,1114 -1805,2167 -2752,3167l22413 7109c321,72 616,242 857,501l17792 19156 3926 -3914c-5298,-6773 -14794,-17875 -22329,-21133 -1984,-858 -4776,-1490 -6880,-2050 -4124,-1095 -8589,-2240 -12710,-3377zm24711 48756l18614 -20597 2535 2773c575,1023 509,2158 -199,3405l-14033 15653c-1267,1114 -2583,1385 -3948,813l-2969 -2047zm11162 -16137l-12873 14762 -6812 -4257c-416,-9550 722,-18552 3459,-27623l16226 17118zm-116168 16137l-18613 -20597 -2535 2773c-575,1023 -509,2158 200,3405l14032 15653c1267,1113 2583,1385 3948,813l2968 -2047zm-11161 -16137l12873 14762 6812 -4257c417,-9550 -722,-18552 -3459,-27623l-16226 17118zm38562 -28827c-1032,-1191 -1996,-2450 -2896,-3766 -4159,1150 -8331,2242 -12503,3351 -2105,560 -4896,1192 -6880,2050 -7535,3258 -17031,14360 -22329,21133l3926 3914 17792 -19156c241,-259 535,-429 856,-501l22034 -7025z"/>
   <path class="fil0" d="M99804 39810c5665,0 10258,4592 10258,10258 0,5665 -4593,10258 -10258,10258 -5666,0 -10258,-4593 -10258,-10258 0,-5666 4592,-10258 10258,-10258zm0 1946c4591,0 8312,3721 8312,8312 0,4591 -3721,8312 -8312,8312 -4591,0 -8312,-3721 -8312,-8312 0,-4591 3721,-8312 8312,-8312z"/>
   <path class="fil0" d="M48857 80465c-815,0 -1480,-665 -1480,-1481 0,-815 665,-1480 1480,-1480l57769 0c816,0 1480,665 1480,1480 0,816 -664,1481 -1480,1481l-57769 0z"/>
  </g>
 </g>
</svg>
