<?xml version="1.0" encoding="UTF-8"?>
<!DOCTYPE svg PUBLIC "-//W3C//DTD SVG 1.1//EN" "http://www.w3.org/Graphics/SVG/1.1/DTD/svg11.dtd">
<!-- Creator: CorelDRAW X7 -->
<svg xmlns="http://www.w3.org/2000/svg" xml:space="preserve" width="3.25152cm" height="2.0847cm" version="1.1" style="shape-rendering:geometricPrecision; text-rendering:geometricPrecision; image-rendering:optimizeQuality; fill-rule:evenodd; clip-rule:evenodd"
viewBox="0 0 70667 45308"
 xmlns:xlink="http://www.w3.org/1999/xlink">
 <defs>
  <style type="text/css">
   <![CDATA[
    .fil0 {fill:#3BB77E}
   ]]>
  </style>
 </defs>
 <g id="Layer_x0020_1">
  <metadata id="CorelCorpID_0Corel-Layer"/>
  <g id="_840965792">
   <path class="fil0" d="M68601 45308l-4874 0 -2307 0 -5292 0c-442,0 -802,-361 -802,-802 0,-442 360,-802 802,-802l5292 0 0 0 7181 0c251,0 462,-211 462,-461l0 -35720c0,-250 -211,-461 -462,-461l-61078 0c-250,0 -461,211 -461,461l0 35720c0,250 211,461 461,461l36276 0 0 0 4209 0c442,0 802,360 802,802 0,441 -360,802 -802,802l-4209 0 -1368 0 -34908 0c-1136,0 -2065,-929 -2065,-2065l0 -35720c0,-1136 929,-2065 2065,-2065l61078 0c1136,0 2066,929 2066,2065l0 35720c0,1136 -930,2065 -2066,2065zm-15732 -802c0,443 -359,802 -801,802 -443,0 -802,-359 -802,-802 0,-443 359,-802 802,-802 442,0 801,359 801,802z"/>
   <g>
    <g>
     <path class="fil0" d="M57673 16311l-14720 0 -2077 0 0 1 -4209 0c-442,0 -802,360 -802,801 0,442 360,802 802,802l4209 0 1368 0 709 0 14720 0 709 0 1368 0 4209 0c441,0 801,-360 801,-802 0,-441 -360,-801 -801,-801l-4209 0 0 -1 -2077 0z"/>
     <path class="fil0" d="M57673 24581l-14720 0 -2077 0 0 0 -4209 0c-442,0 -802,360 -802,802 0,442 360,802 802,802l4209 0 1368 0 709 0 14720 0 709 0 1368 0 4209 0c441,0 801,-360 801,-802 0,-442 -360,-802 -801,-802l-4209 0 0 0 -2077 0z"/>
     <path class="fil0" d="M57673 32851l-14720 0 -2077 0 0 0 -4209 0c-442,0 -802,360 -802,802 0,441 360,802 802,802l4209 0 1368 0 709 0 14720 0 709 0 1368 0 4209 0c441,0 801,-361 801,-802 0,-442 -360,-802 -801,-802l-4209 0 0 0 -2077 0z"/>
    </g>
    <path class="fil0" d="M30914 38688l-17946 0c-883,0 -1604,-721 -1604,-1604 0,-5841 4736,-10576 10577,-10576 5840,0 10576,4735 10576,10576 0,883 -720,1604 -1603,1604zm-8973 -1604l-8973 0c0,-4956 4017,-8973 8973,-8973 4955,0 8973,4017 8973,8973l-8973 0zm0 -23402c2854,0 5168,2314 5168,5168 0,2855 -2314,5169 -5168,5169 -2855,0 -5169,-2314 -5169,-5169 0,-2854 2314,-5168 5169,-5168zm0 -1604c3739,0 6772,3033 6772,6772 0,3740 -3033,6773 -6772,6773 -3740,0 -6773,-3033 -6773,-6773 0,-3739 3033,-6772 6773,-6772z"/>
   </g>
   <path class="fil0" d="M63605 2852l0 -787c0,-250 -211,-461 -461,-461l-61079 0c-250,0 -461,211 -461,461l0 35720c0,250 211,461 461,461l787 0 0 1603 -787 0c-1136,0 -2065,-929 -2065,-2064l0 -35720c0,-1136 929,-2065 2065,-2065l61079 0c1135,0 2064,929 2064,2065l0 787 -1603 0z"/>
  </g>
 </g>
</svg>
