<?xml version="1.0" encoding="UTF-8"?>
<!DOCTYPE svg PUBLIC "-//W3C//DTD SVG 1.1//EN" "http://www.w3.org/Graphics/SVG/1.1/DTD/svg11.dtd">
<!-- Creator: CorelDRAW X7 -->
<svg xmlns="http://www.w3.org/2000/svg" xml:space="preserve" width="2.50126cm" height="2.49996cm" version="1.1" style="shape-rendering:geometricPrecision; text-rendering:geometricPrecision; image-rendering:optimizeQuality; fill-rule:evenodd; clip-rule:evenodd"
viewBox="0 0 26105 26092"
 xmlns:xlink="http://www.w3.org/1999/xlink">
 <defs>
  <style type="text/css">
   <![CDATA[
    .fil0 {fill:#3BB77E}
   ]]>
  </style>
 </defs>
 <g id="Layer_x0020_1">
  <metadata id="CorelCorpID_0Corel-Layer"/>
  <path class="fil0" d="M24636 7024c1979,3820 2030,8538 -281,12540 -3604,6242 -11586,8381 -17828,4777 -6242,-3604 -8380,-11585 -4776,-17827 2311,-4003 6422,-6318 10720,-6514l28 16 12109 6991 28 17zm-14562 1708l6079 3509c251,145 337,468 193,718l0 0c-145,250 -468,337 -718,193l-6079 -3510c-250,-144 -337,-467 -193,-718l1 0c144,-250 467,-337 717,-192zm8198 4733c252,145 338,466 193,718 -146,251 -467,337 -718,192 -252,-145 -338,-467 -193,-718 146,-251 467,-337 718,-192zm5236 -5675c-2252,1603 -5234,1751 -7635,364 -2401,-1386 -3764,-4042 -3502,-6794l20 -213 -180 -50c-3962,282 -7527,2495 -9525,5957 -3306,5726 -1344,13046 4381,16352 5726,3306 13047,1344 16353,-4382 1998,-3461 2133,-7655 396,-11227l-141 -126 -167 119zm-18327 3792l13069 7546c250,144 337,467 192,718l0 0c-144,250 -467,337 -718,192l-13069 -7545c-250,-145 -337,-468 -192,-718l0 0c145,-251 468,-337 718,-193z"/>
 </g>
</svg>
