<?xml version="1.0" encoding="UTF-8"?>
<!DOCTYPE svg PUBLIC "-//W3C//DTD SVG 1.1//EN" "http://www.w3.org/Graphics/SVG/1.1/DTD/svg11.dtd">
<!-- Creator: CorelDRAW X7 -->
<svg xmlns="http://www.w3.org/2000/svg" xml:space="preserve" width="3.34903cm" height="2.95799cm" version="1.1" style="shape-rendering:geometricPrecision; text-rendering:geometricPrecision; image-rendering:optimizeQuality; fill-rule:evenodd; clip-rule:evenodd"
viewBox="0 0 304262 268736"
 xmlns:xlink="http://www.w3.org/1999/xlink">
 <defs>
  <style type="text/css">
   <![CDATA[
    .fil0 {fill:#3BB77E}
   ]]>
  </style>
 </defs>
 <g id="Layer_x0020_1">
  <metadata id="CorelCorpID_0Corel-Layer"/>
  <g id="_843254824">
   <path class="fil0" d="M161513 5385l-78065 0 -78064 0 0 146050c0,1483 -1209,2692 -2692,2692 -1483,0 -2692,-1209 -2692,-2692l0 -148743c0,-1482 1209,-2692 2692,-2692l80756 0 80757 0c1483,0 2691,1210 2691,2692l0 42410c0,1483 -1208,2692 -2691,2692 -1483,0 -2692,-1209 -2692,-2692l0 -39717zm-122657 109520c-1259,0 -2286,-1026 -2286,-2286 0,-1259 1027,-2285 2286,-2285l89184 0c1259,0 2285,1026 2285,2285 0,1260 -1026,2286 -2285,2286l-89184 0zm0 28880c-1259,0 -2286,-1027 -2286,-2287 0,-1259 1027,-2286 2286,-2286l89184 0c1259,0 2285,1027 2285,2286 0,1260 -1026,2287 -2285,2287l-89184 0zm0 28879c-1259,0 -2286,-1027 -2286,-2286 0,-1259 1027,-2286 2286,-2286l89184 0c1259,0 2285,1027 2285,2286 0,1259 -1026,2286 -2285,2286l-89184 0zm0 28879c-1259,0 -2286,-1027 -2286,-2286 0,-1259 1027,-2285 2286,-2285l89184 0c1259,0 2285,1026 2285,2285 0,1259 -1026,2286 -2285,2286l-89184 0zm65204 -173201c5884,0 10654,4770 10654,10655 0,5885 -4770,10656 -10654,10656 -5885,0 -10655,-4771 -10655,-10656 0,-5885 4770,-10655 10655,-10655zm8277 32459l-22432 28948 44864 0 -22432 -28948zm-39401 -23713l-40808 52661 51306 0c-7,-1394 456,-2767 1373,-3950l12938 -16696 -24809 -32015zm-58893 -23043l0 85240 138811 0 0 -85240 -138811 0zm5384 5383l0 74473 128043 0 0 -74473 -128043 0zm64021 194128l-78064 0 0 -34859c0,-1483 -1209,-2692 -2692,-2692 -1483,0 -2692,1209 -2692,2692l0 37550c0,1483 1209,2692 2692,2692l80756 0 80757 0c1483,0 2691,-1209 2691,-2692l0 -143883c0,-1483 -1208,-2692 -2691,-2692 -1483,0 -2692,1209 -2692,2692l0 141192 -78065 0zm-80756 -51181c-1487,0 -2692,1204 -2692,2692 0,1487 1205,2692 2692,2692 1487,0 2692,-1205 2692,-2692 0,-1488 -1205,-2692 -2692,-2692zm161513 -106334c1487,0 2691,1205 2691,2692 0,1487 -1204,2692 -2691,2692 -1487,0 -2692,-1205 -2692,-2692 0,-1487 1205,-2692 2692,-2692z"/>
   <path class="fil0" d="M249657 266043c0,1487 -1205,2692 -2692,2692 -1487,0 -2692,-1205 -2692,-2692 0,-1488 1205,-2692 2692,-2692 1487,0 2692,1204 2692,2692zm-64834 -25293c-1259,0 -2286,-1027 -2286,-2287 0,-1259 1027,-2286 2286,-2286l68715 0c1259,0 2286,1027 2286,2286 0,1260 -1027,2287 -2286,2287l-68715 0zm0 -28879c-1259,0 -2286,-1026 -2286,-2286 0,-1260 1027,-2286 2286,-2286l68715 0c1259,0 2286,1026 2286,2286 0,1260 -1027,2286 -2286,2286l-68715 0zm0 -57759c-1259,0 -2286,-1027 -2286,-2286 0,-1259 1027,-2286 2286,-2286l68715 0c1259,0 2286,1027 2286,2286 0,1259 -1027,2286 -2286,2286l-68715 0zm0 28880c-1259,0 -2286,-1027 -2286,-2286 0,-1259 1027,-2286 2286,-2286l68715 0c1259,0 2286,1027 2286,2286 0,1259 -1027,2286 -2286,2286l-68715 0zm145 -75771l-168 0c-1482,0 -2692,-1209 -2692,-2692 0,-1482 1210,-2692 2692,-2692l168 0 10513 0 83228 0c831,-41 1660,309 2219,1001 22293,27649 21408,72952 21575,106732 93,19028 -1058,37294 1699,56144 205,1408 -76,2672 -1469,2961 -204,42 -421,61 -645,60l-41492 0c-1482,0 -2692,-1210 -2692,-2692 0,-1483 1210,-2692 2692,-2692l30015 0c4622,-360 6616,-2617 5984,-6772 -2238,-11567 -3169,-22963 -4780,-34996 -3699,-27626 -14341,-60238 -33373,-82037 -626,-717 -823,-1632 -550,-2542 274,-911 945,-1565 1861,-1817 6242,-1717 30250,-11433 17826,-25840 -898,-1040 -1926,-1935 -3908,-2126l-2473 0 -75717 0 -10513 0zm-98209 129789l0 -1295c0,-1483 1209,-2692 2692,-2692 1482,0 2692,1209 2692,2692l0 1295 0 9385 0 16956 141192 0c1482,0 2692,1209 2692,2692 0,1482 -1210,2692 -2692,2692l-143884 0c-1483,0 -2692,-1210 -2692,-2692l0 -19648 0 -9385z"/>
  </g>
 </g>
</svg>
