<?xml version="1.0" encoding="UTF-8"?>
<!DOCTYPE svg PUBLIC "-//W3C//DTD SVG 1.1//EN" "http://www.w3.org/Graphics/SVG/1.1/DTD/svg11.dtd">
<!-- Creator: CorelDRAW X7 -->
<svg xmlns="http://www.w3.org/2000/svg" xml:space="preserve" width="41.1783cm" height="40.3913cm" version="1.1" style="shape-rendering:geometricPrecision; text-rendering:geometricPrecision; image-rendering:optimizeQuality; fill-rule:evenodd; clip-rule:evenodd"
viewBox="0 0 3364383 3300083"
 xmlns:xlink="http://www.w3.org/1999/xlink">
 <defs>
  <style type="text/css">
   <![CDATA[
    .fil0 {fill:#201E1E}
   ]]>
  </style>
 </defs>
 <g id="Layer_x0020_1">
  <metadata id="CorelCorpID_0Corel-Layer"/>
  <g id="_679664920">
   <g>
    <path class="fil0" d="M1235855 2731079l895308 -218 305 569005 -895307 217 -306 -569004zm110299 110248l255 348457 674760 -167 -254 -348457 -674761 167z"/>
    <path class="fil0" d="M1730409 576233l804274 1375860c-235933,150218 -375674,386456 -405811,720675l-446505 105 -446529 179c-30313,-334316 -170158,-570398 -406148,-720468l803414 -1376264 358 1034260c-81237,21495 -141118,95500 -141190,183493 71,104838 85057,189759 189896,189688 104814,3 189810,-84959 189813,-189774 -77,-88040 -60053,-161906 -141239,-183419l-333 -1034335zm110436 407449l191 555938c85774,53783 141193,149231 141267,254317 6,165708 -134428,300044 -300084,300147 -165709,5 -300241,-134327 -300246,-300035 21,-105383 55296,-200764 141208,-254539l-263 -555715 -547238 937447c203700,161946 315699,383778 357388,641475l698548 -236c41611,-257557 153567,-479588 357020,-641593l-547791 -937206z"/>
   </g>
   <path class="fil0" d="M3080361 1762694l639 -31607 185483 317 500 184243 -30691 2355 -155931 -393 0 -154915zm-2981453 -30212l185668 -1541 968 31748 -163 154920 -186579 -442 106 -184685zm1491881 -1633880l187751 2115 -1583 189652 -190239 -2955 4071 -188812zm1544365 14431c113360,-57433 184918,114692 80710,164227 -51578,24516 -102875,-4295 -122346,-37535 -13438,-22939 -16426,-55389 -5850,-82650 14558,-37535 46100,-43337 47486,-44042zm-2981260 -1883c111565,-56324 191801,122858 70402,169339 -106056,40610 -182851,-112569 -70402,-169339zm1336805 -29968l0 64058 -1121008 0c-5515,-66267 -87001,-136124 -160144,-136124l-40035 0c-190789,0 -248152,331024 -3526,372514 93644,15882 196997,-59699 203705,-140303l760685 0c-15763,13699 -138309,61164 -198650,97617 -177335,107128 -158198,95009 -295859,216599 -59706,52735 -14458,1683 -76365,75774 -37506,44886 -42812,38185 -104094,120106 -154446,206454 -309919,526369 -309919,883156 -169603,0 -144129,-28324 -144129,320289 0,26983 14150,56048 40037,56048 85448,0 253890,9329 328294,-8005 17334,-74406 8008,-242850 8008,-328297 0,-51400 -91685,-40035 -136123,-40035 0,-198032 63052,-392233 121132,-535458 61512,-151687 129755,-233565 219762,-348751 17681,-22628 21626,-27107 41414,-46665 79987,-79062 80145,-84077 171231,-157064 148073,-118647 371863,-228106 552011,-264723 39520,-8033 102917,-23672 143573,-24577 0,157983 187,128115 320287,128115 72927,0 64058,-72178 64058,-128115 39105,869 101057,16102 136881,23260 106035,21187 274839,87301 359929,136521l100520 59620c131220,87615 246745,188344 344221,312371 26196,33330 47382,61687 70673,97478 41394,63604 87512,142858 115767,212530 31296,77182 62829,158090 81854,246439 17274,80214 39278,192291 39278,289019 -171209,0 -136120,-29895 -136120,328294 0,21626 3822,22077 8005,40038 74403,17334 242846,8005 328297,8005 25884,0 40034,-29065 40034,-56048l0 -256231c0,-81149 -77799,-64058 -144130,-64058 0,-354590 -153718,-672662 -306458,-878607 -160389,-216259 -379803,-380809 -625158,-487844 -11287,-4924 -18690,-7312 -28270,-11767l-10784 -5231c-10433,-5820 -8021,-4422 -14214,-9803l760683 0c6707,80604 110061,156185 203705,140303 244626,-41490 187263,-372514 -3523,-372514l-40038 0c-73144,0 -154629,69857 -160144,136124l-1121008 0c0,-167477 8321,-144130 -288259,-144130 -66310,0 -96086,12680 -96086,80072z"/>
  </g>
 </g>
</svg>
