<?xml version="1.0" encoding="UTF-8"?>
<!DOCTYPE svg PUBLIC "-//W3C//DTD SVG 1.1//EN" "http://www.w3.org/Graphics/SVG/1.1/DTD/svg11.dtd">
<!-- Creator: CorelDRAW X7 -->
<svg xmlns="http://www.w3.org/2000/svg" xml:space="preserve" width="39.5479cm" height="10.4461cm" version="1.1" style="shape-rendering:geometricPrecision; text-rendering:geometricPrecision; image-rendering:optimizeQuality; fill-rule:evenodd; clip-rule:evenodd"
viewBox="0 0 1685382 445174"
 xmlns:xlink="http://www.w3.org/1999/xlink">
 <defs>
  <style type="text/css">
   <![CDATA[
    .fil2 {fill:#373435}
    .fil1 {fill:#201E1E}
    .fil0 {fill:#3BB77E}
   ]]>
  </style>
 </defs>
 <g id="Layer_x0020_1">
  <metadata id="CorelCorpID_0Corel-Layer"/>
  <g id="_703695632">
   <g>
    <path class="fil0" d="M868696 155659l501431 0c15895,0 28901,13005 28901,28900l0 43352c0,15896 -13006,28901 -28901,28901l-10213 0 -39834 159461c-3852,15421 -13007,28901 -28901,28901l-123359 0 -96818 0 -123359 0c-15894,0 -25049,-13480 -28901,-28901l-39834 -159461 -10212 0c-15896,0 -28901,-13005 -28901,-28901l0 -43352c0,-15895 13005,-28900 28901,-28900z"/>
    <path class="fil1" d="M1045105 141426c2793,0 5055,2262 5055,5055 0,2794 -2262,5056 -5055,5056 -2793,0 -5056,-2262 -5056,-5056 0,-2793 2263,-5055 5056,-5055zm152199 288693c2793,0 5055,2262 5055,5055 0,2794 -2262,5056 -5055,5056 -2793,0 -5056,-2262 -5056,-5056 0,-2793 2263,-5055 5056,-5055zm46202 10113l-23133 0c-2779,0 -5055,-2276 -5055,-5056l0 -4c0,-2780 2272,-5056 5055,-5056l23133 0 25978 0 12239 0c13761,0 20660,-13004 23596,-24757l37314 -149372c2094,-8384 9500,-14195 18142,-14233 12835,-56 23328,-10597 23328,-23431l0 -43352c0,-12876 -10556,-23432 -23432,-23432l-243386 0 -25978 0 -23132 0c-2780,0 -5056,-2276 -5056,-5056l0 -4c0,-2780 2272,-5055 5056,-5055l23132 0 25978 0 243386 0c18459,0 33547,15088 33547,33547l0 43352c0,18401 -14998,33466 -33398,33547 -4018,18 -7400,2670 -8374,6569l-37314 149372c-4148,16607 -14593,32421 -33409,32421l-12239 0 -25978 0zm-94793 0l25521 0c2779,0 5055,-2276 5055,-5056l0 -4c0,-2780 -2271,-5056 -5055,-5056l-25521 0 -23590 0 -186936 0c-13760,0 -20659,-13004 -23595,-24757l-37314 -149372c-2094,-8384 -9501,-14195 -18142,-14233 -12836,-56 -23328,-10597 -23328,-23431l0 -43352c0,-12876 10556,-23432 23432,-23432l113684 0 23590 0 25521 0c2779,0 5055,-2276 5055,-5056l0 -4c0,-2780 -2271,-5055 -5055,-5055l-25521 0 -23590 0 -113684 0c-18460,0 -33548,15088 -33548,33547l0 43352c0,18401 14998,33466 33399,33547 4018,18 7400,2670 8373,6569l37314 149372c4149,16607 14594,32421 33409,32421l186936 0 23590 0z"/>
    <path class="fil1" d="M1250857 241756c2793,0 5055,2263 5055,5056 0,2794 -2262,5056 -5055,5056 -2793,0 -5055,-2262 -5055,-5056 0,-2793 2262,-5056 5055,-5056zm72181 10114l-49111 0c-2779,0 -5055,-2277 -5055,-5056l0 -5c0,-2779 2271,-5055 5055,-5055l49111 0 0 10116zm-423342 0l328091 0c2779,0 5056,-2277 5056,-5056l0 -5c0,-2779 -2272,-5055 -5056,-5055l-328091 0 0 10116z"/>
    <g>
     <path class="fil1" d="M1009548 299896l0 88720c0,11936 -9741,21676 -21676,21676 -11936,0 -21676,-9740 -21676,-21676l0 -88720c0,-11936 9740,-21676 21676,-21676 11935,0 21676,9740 21676,21676zm-7057 0l0 88720c0,8041 -6579,14619 -14619,14619l0 0c-8040,0 -14619,-6578 -14619,-14619l0 -88720c0,-8041 6579,-14619 14619,-14619l0 0c8040,0 14619,6578 14619,14619z"/>
     <path class="fil1" d="M1091876 344257c0,1948 -1578,3526 -3527,3526 -1949,0 -3526,-1578 -3526,-3526 0,-1948 1577,-3528 3526,-3528 1949,0 3527,1580 3527,3528zm2 -44361l0 6263 0 15153 0 6850c0,1941 -1588,3527 -3527,3527l-3 0c-1939,0 -3527,-1588 -3527,-3527l0 -6850 0 -15153 0 -6263c0,-8040 -6579,-14618 -14620,-14618l0 0c-8040,0 -14617,6578 -14617,14618l0 88720c0,8041 6577,14619 14617,14619l0 0c8041,0 14620,-6578 14620,-14619l0 -4425 0 -15126 0 -8713c0,-1940 1588,-3528 3527,-3528l3 0c1939,0 3527,1585 3527,3528l0 8713 0 15126 0 4425c0,11936 -9740,21676 -21677,21676 -11935,0 -21675,-9740 -21675,-21676l0 -88720c0,-11935 9740,-21676 21675,-21676 11937,0 21677,9741 21677,21676z"/>
     <path class="fil1" d="M1174208 299896l0 88720c0,11936 -9740,21676 -21676,21676 -11936,0 -21676,-9740 -21676,-21676l0 -88720c0,-11936 9740,-21676 21676,-21676 11936,0 21676,9740 21676,21676zm-7058 0l0 88720c0,8041 -6577,14619 -14618,14619l0 0c-8041,0 -14619,-6578 -14619,-14619l0 -88720c0,-8041 6578,-14619 14619,-14619l0 0c8041,0 14618,6578 14618,14619z"/>
     <path class="fil1" d="M1256536 344257c0,1948 -1578,3526 -3527,3526 -1949,0 -3527,-1578 -3527,-3526 0,-1948 1578,-3528 3527,-3528 1949,0 3527,1580 3527,3528zm2 -44361l0 6263 0 15153 0 6850c0,1941 -1588,3527 -3527,3527l-2 0c-1940,0 -3528,-1588 -3528,-3527l0 -6850 0 -15153 0 -6263c0,-8040 -6578,-14618 -14619,-14618l0 0c-8041,0 -14619,6578 -14619,14618l0 88720c0,8041 6578,14619 14619,14619l0 0c8041,0 14619,-6578 14619,-14619l0 -4425 0 -15126 0 -8713c0,-1940 1588,-3528 3528,-3528l2 0c1939,0 3527,1585 3527,3528l0 8713 0 15126 0 4425c0,11936 -9740,21676 -21676,21676 -11936,0 -21676,-9740 -21676,-21676l0 -88720c0,-11935 9740,-21676 21676,-21676 11936,0 21676,9741 21676,21676z"/>
    </g>
   </g>
   <path class="fil2" d="M782229 430119c2793,0 5055,2262 5055,5055 0,2794 -2262,5056 -5055,5056 -2793,0 -5056,-2262 -5056,-5056 0,-2793 2263,-5055 5056,-5055zm-23070 10113c2779,0 5055,-2276 5055,-5056l0 -4c0,-2780 -2271,-5056 -5055,-5056 -17375,0 -197437,0 -214811,0 -2784,0 -5056,2277 -5056,5056l0 4c0,2778 2277,5056 5056,5056 17374,0 197436,0 214811,0zm98263 0c2779,0 5055,-2276 5055,-5056l0 -4c0,-2780 -2271,-5056 -5055,-5056 -17375,0 -34749,0 -52123,0 -2784,0 -5056,2276 -5056,5056l0 4c0,2780 2277,5056 5056,5056 17374,0 34748,0 52123,0z"/>
   <path class="fil2" d="M1605134 430119c2793,0 5055,2262 5055,5055 0,2794 -2262,5056 -5055,5056 -2793,0 -5056,-2262 -5056,-5056 0,-2793 2263,-5055 5056,-5055zm-23070 10113c2779,0 5055,-2276 5055,-5056l0 -4c0,-2780 -2271,-5056 -5055,-5056 -17375,0 -197436,0 -214811,0 -2784,0 -5056,2277 -5056,5056l0 4c0,2778 2276,5056 5056,5056 17375,0 197436,0 214811,0zm98263 0c2779,0 5055,-2276 5055,-5056l0 -4c0,-2780 -2271,-5056 -5055,-5056 -17374,0 -34749,0 -52123,0 -2784,0 -5056,2276 -5056,5056l0 4c0,2780 2277,5056 5056,5056 17374,0 34749,0 52123,0z"/>
   <g>
    <path class="fil0" d="M426067 15468c32223,0 58572,26349 58572,58572l0 118491 60049 0 0 -47836c0,-15099 12354,-27454 27453,-27454l0 0c15100,0 27454,12355 27454,27454l0 47836 0 27454 0 27453 -27454 0 -87502 0 0 192267c0,2327 -1910,4237 -4236,4237l-108672 0c-2326,0 -4236,-1910 -4236,-4237l0 -127244 -66176 0 -27454 0 0 -27453 0 -27454 0 -47836c0,-15099 12354,-27454 27454,-27454l0 0c15100,0 27454,12355 27454,27454l0 47836 38722 0 0 -183514c0,-32222 26350,-58572 58572,-58572z"/>
    <path class="fil1" d="M371074 126768c0,2793 2262,5056 5055,5056 2794,0 5056,-2263 5056,-5056 0,-2793 -2262,-5055 -5056,-5055 -2793,0 -5055,2262 -5055,5055zm-97866 129752c0,2793 2262,5056 5055,5056 2794,0 5056,-2263 5056,-5056 0,-2793 -2262,-5055 -5056,-5055 -2793,0 -5055,2262 -5055,5055zm10113 23070c0,-2779 -2276,-5055 -5056,-5055l-4 0c-2780,0 -5055,2271 -5055,5055l0 1164 0 397 0 731 0 700 0 669 0 640 0 612 0 585 0 558 0 534 0 511 0 487 0 465 0 445 0 426 0 407 0 390 0 373 0 358 0 345 0 331 0 319 0 309 0 298 0 290 0 283 0 275 0 271 0 266 0 263 0 261 0 259 0 260 0 261 0 262 0 266 0 271 0 276 0 282 0 291 0 298 0 308 0 320 0 331 0 344 0 358 0 374 0 389 0 408 0 425 0 445 0 466 0 487 0 510 0 534 0 559 0 584 0 612 0 640 0 670 0 700 0 730 0 764 0 798 0 4953 4046 0c326,67 664,102 1009,102l4 0c346,0 682,-35 1009,-102l91798 0 0 117128c0,5572 4544,10116 10115,10116l108671 0c5571,0 10116,-4544 10116,-10116l0 -182151 225 0c17375,0 11070,0 28445,0 2783,0 5055,-2276 5055,-5055l0 -5c0,-2779 -2276,-5055 -5055,-5055 -17375,0 -11070,0 -28445,0l-24191 0 0 10115 13850 0 0 182151 -108671 0 0 -117128 17090 0 0 -10115 -87502 0 -27454 0 0 -22119 0 -1164zm-10115 -56368l0 10228c0,2784 2275,5056 5055,5056l4 0c2780,0 5056,-2277 5056,-5056l0 -10228 0 -18217 0 -4876c0,-15099 12354,-27453 27454,-27453l0 0c15100,0 27454,12354 27454,27453l0 47836 60048 0 0 -10115 -17090 0 0 -59567 0 -798 0 -764 0 -730 0 -700 0 -670 0 -640 0 -612 0 -584 0 -559 0 -534 0 -510 0 -487 0 -466 0 -445 0 -425 0 -408 0 -389 0 -374 0 -358 0 -344 0 -331 0 -320 0 -308 0 -298 0 -291 0 -282 0 -276 0 -271 0 -266 0 -219 0 -14786c0,-2779 -2276,-5055 -5056,-5055l-4 0c-2780,0 -5055,2271 -5055,5055l0 14786 0 219 0 266 0 271 0 276 0 282 0 291 0 298 0 308 0 320 0 331 0 344 0 358 0 374 0 389 0 408 0 425 0 445 0 466 0 487 0 510 0 534 0 559 0 584 0 612 0 640 0 670 0 700 0 730 0 764 0 798 0 59567 -22728 0 0 -37721c0,-20683 -16887,-37569 -37569,-37569 -20683,0 -37569,16886 -37569,37569l0 4876 0 18217zm278508 24741c2793,0 5055,-2262 5055,-5055 0,-2794 -2262,-5056 -5055,-5056 -2793,0 -5056,2262 -5056,5056 0,2793 2263,5055 5056,5055zm23069 -10113c-2779,0 -5055,2276 -5055,5055l0 5c0,2779 2272,5055 5055,5055 17375,0 11070,0 28445,0l15938 0 0 -112859c0,-20683 -16886,-37569 -37569,-37569 -20682,0 -37569,16886 -37569,37569l0 37721 -44054 0 0 -108376c0,-35468 -28983,-64451 -64451,-64451 -35468,0 -64451,28984 -64451,64451l0 10802 0 10531 0 17914c0,2784 2275,5056 5055,5056l4 0c2780,0 5056,-2277 5056,-5056l0 -17914 0 -10531 0 -10802c0,-29885 24452,-54336 54336,-54336l0 0c29885,0 54335,24451 54335,54336l0 108376 -13850 0 0 10115 78135 0 0 -47836c0,-15099 12354,-27454 27454,-27454l0 0c15100,0 27454,12355 27454,27454l0 47836 0 27454 0 27454 -5823 0c-17375,0 -11070,0 -28445,0z"/>
    <rect class="fil1" transform="matrix(-1.97225E-014 1 0.744678 2.64845E-014 489858 77946)" width="10115" height="42002"/>
    <g>
     <rect class="fil1" transform="matrix(-2.89713E-014 1 1.09389 2.64845E-014 609051 151840)" width="10115" height="42002"/>
     <rect class="fil1" transform="matrix(-1.97225E-014 1 0.744678 2.64845E-014 609051 180336)" width="10115" height="42002"/>
     <rect class="fil1" transform="matrix(-3.63611E-014 1 1.37292 2.64845E-014 609051 216560)" width="10115" height="42002"/>
    </g>
    <g>
     <rect class="fil1" transform="matrix(2.89713E-014 1 -1.09389 2.64845E-014 381187 340138)" width="10115" height="42002"/>
     <rect class="fil1" transform="matrix(1.97225E-014 1 -0.744678 2.64845E-014 381187 368635)" width="10115" height="42002"/>
     <rect class="fil1" transform="matrix(3.63611E-014 1 -1.37292 2.64845E-014 381187 404859)" width="10115" height="42002"/>
    </g>
   </g>
   <path class="fil2" d="M80249 430119c-2794,0 -5056,2262 -5056,5055 0,2794 2262,5056 5056,5056 2793,0 5055,-2262 5055,-5056 0,-2793 -2262,-5055 -5055,-5055zm23069 10113c-2779,0 -5055,-2276 -5055,-5056l0 -4c0,-2780 2272,-5056 5055,-5056 17375,0 197437,0 214811,0 2785,0 5056,2277 5056,5056l0 4c0,2778 -2276,5056 -5056,5056 -17374,0 -197436,0 -214811,0zm-98263 0c-2779,0 -5055,-2276 -5055,-5056l0 -4c0,-2780 2271,-5056 5055,-5056 17375,0 34749,0 52124,0 2783,0 5055,2276 5055,5056l0 4c0,2780 -2276,5056 -5055,5056 -17375,0 -34749,0 -52124,0z"/>
  </g>
 </g>
</svg>
